<?xml version="1.0" standalone="no"?>
<!DOCTYPE svg PUBLIC "-//W3C//DTD SVG 20010904//EN"
 "http://www.w3.org/TR/2001/REC-SVG-20010904/DTD/svg10.dtd">
<svg version="1.0" xmlns="http://www.w3.org/2000/svg"
 width="500.000000pt" height="500.000000pt" viewBox="0 0 500.000000 500.000000"
 preserveAspectRatio="xMidYMid meet">
<metadata>
Created by potrace 1.11, written by Peter Selinger 2001-2013
</metadata>
<g transform="translate(0.000000,500.000000) scale(0.100000,-0.100000)"
fill="#000000" stroke="none">
<path d="M1120 4989 c0 -6 -20 -41 -44 -78 -24 -36 -53 -84 -65 -106 -12 -22
-34 -57 -49 -78 -25 -35 -39 -82 -20 -71 4 3 9 -44 10 -103 3 -96 4 -104 14
-73 7 21 17 34 25 32 9 -3 8 2 -4 16 -16 18 -16 19 4 17 25 -2 44 -30 32 -48
-4 -6 -8 -16 -10 -22 -5 -24 -13 -53 -27 -97 -12 -37 -12 -48 -2 -48 8 0 12
-14 12 -40 -1 -22 -5 -40 -9 -40 -5 0 -5 -5 -1 -12 4 -6 7 -32 6 -57 l-2 -46
15 28 c9 15 21 27 27 27 6 0 3 10 -8 22 -10 12 -13 18 -6 14 7 -4 20 -2 28 5
8 6 17 9 21 5 3 -3 2 -6 -4 -6 -7 0 -8 -15 -3 -42 5 -23 6 -51 4 -61 -3 -15
-1 -17 11 -7 12 10 17 8 24 -11 9 -23 10 -23 10 -3 1 31 34 69 54 61 12 -4 15
-16 12 -44 -5 -49 -9 -65 -18 -80 -5 -8 -3 -13 3 -13 6 0 8 -4 5 -10 -3 -5 -3
-15 1 -22 10 -16 12 -78 2 -78 -4 0 -8 -10 -8 -22 0 -13 -4 -61 -8 -108 -4
-46 -7 -127 -7 -180 0 -52 -3 -98 -8 -101 -7 -5 -12 -48 -20 -176 -1 -17 -5
-29 -8 -27 -6 3 -19 -85 -35 -241 -3 -33 -13 -68 -21 -77 -11 -12 -12 -18 -4
-18 7 0 9 -5 5 -12 -4 -6 -8 -32 -10 -57 -1 -25 -5 -94 -7 -153 -3 -59 -10
-116 -16 -126 -6 -11 -8 -22 -5 -25 3 -3 7 -27 9 -54 9 -155 15 -261 20 -358
3 -60 8 -128 10 -150 10 -100 12 -215 5 -215 -5 0 -11 8 -14 18 -8 28 -25 311
-32 522 -5 161 -7 180 -15 180 -4 0 -20 -37 -35 -82 -14 -46 -33 -95 -40 -109
-7 -15 -15 -37 -18 -50 -10 -55 -9 -53 -46 -98 -11 -13 -21 -32 -21 -43 -2
-31 -4 -36 -12 -45 -15 -14 -37 -75 -31 -84 3 -5 0 -9 -5 -9 -6 0 -11 -9 -11
-20 0 -11 -7 -20 -15 -20 -8 0 -15 -4 -15 -10 0 -5 7 -7 15 -4 18 7 19 -6 3
-41 -7 -15 -17 -24 -25 -21 -9 4 -13 -4 -13 -23 0 -20 -6 -30 -20 -34 -11 -3
-19 -9 -18 -14 1 -4 -6 -20 -16 -36 -10 -15 -16 -36 -13 -47 3 -11 1 -18 -4
-14 -5 3 -9 -2 -9 -10 0 -10 6 -13 15 -10 8 4 15 3 15 -1 0 -11 -34 -69 -45
-77 -6 -5 -4 -8 5 -8 12 -1 12 -3 -2 -14 -10 -7 -18 -17 -18 -22 0 -5 -9 -26
-20 -46 -12 -22 -16 -40 -10 -43 6 -3 10 -1 10 6 0 7 3 10 6 6 4 -3 2 -20 -4
-36 -9 -25 -8 -34 5 -47 13 -13 14 -22 5 -53 -21 -70 -28 -189 -19 -326 2 -22
0 -47 -5 -56 -9 -20 24 -20 62 0 26 12 26 14 28 143 1 72 5 135 8 139 3 5 -3
9 -13 9 -16 1 -16 2 -2 13 12 9 14 19 8 42 -6 20 -4 34 5 45 13 14 18 31 31
99 9 46 13 31 14 -51 1 -46 3 -99 4 -118 1 -19 -2 -93 -6 -163 l-7 -129 32 7
c18 4 49 15 68 25 19 9 64 27 98 39 72 25 164 69 173 84 4 5 -6 34 -22 65 -16
30 -35 83 -41 118 -7 37 -16 60 -23 57 -5 -3 -4 0 3 8 18 19 15 28 -9 24 -12
-3 -19 -2 -16 1 3 3 2 17 -4 31 -13 35 -19 93 -9 93 9 0 32 -54 35 -83 1 -9
10 -26 19 -36 9 -9 16 -23 16 -30 0 -7 4 -9 10 -6 5 3 10 0 10 -8 0 -8 9 -26
20 -39 10 -14 17 -27 15 -30 -2 -2 12 -22 31 -43 28 -32 37 -37 44 -25 7 11 9
10 7 -8 0 -12 -6 -22 -11 -22 -6 0 -3 -7 6 -16 20 -20 48 -12 43 13 -3 23 23
53 47 53 10 0 21 6 24 14 3 8 15 14 27 13 12 0 65 16 117 36 52 20 208 73 345
118 138 44 255 85 260 91 7 6 -9 9 -45 7 -58 -2 -113 8 -106 20 3 4 -5 8 -17
8 -12 1 -23 7 -25 13 -2 5 -8 7 -14 4 -5 -3 -12 3 -15 15 -3 12 -10 18 -17 14
-6 -4 -4 2 4 12 8 10 10 16 3 12 -7 -4 -15 4 -21 20 -10 27 -10 27 -11 4 -1
-13 -4 -21 -8 -18 -5 6 -8 19 -12 62 -1 6 -6 3 -11 -5 -8 -12 -10 -10 -10 8 0
15 -4 21 -12 16 -7 -4 -8 -3 -4 5 22 35 16 118 -7 104 -7 -4 -7 0 2 10 8 10
11 20 7 24 -3 3 -6 1 -6 -5 0 -7 -4 -12 -10 -12 -5 0 -7 7 -4 15 4 10 0 15
-16 15 -12 0 -18 4 -15 10 4 6 11 7 17 4 7 -4 8 -2 4 4 -4 7 -16 12 -27 12
-12 0 -19 7 -19 20 0 11 -7 23 -16 27 -8 3 -13 11 -10 18 2 6 0 18 -5 26 -6
10 -9 10 -9 2 0 -7 -5 -13 -11 -13 -6 0 -8 7 -5 16 3 9 2 12 -5 9 -5 -4 -7
-15 -4 -26 8 -25 0 -24 -27 3 -17 17 -18 20 -4 15 12 -5 16 -3 13 5 -2 7 -9
12 -14 11 -11 -2 -18 221 -7 238 4 8 9 7 16 -2 7 -11 9 -11 7 1 -3 31 1 42 16
36 8 -3 14 0 12 6 -1 7 4 12 11 13 6 0 12 3 12 8 0 4 0 12 0 18 0 5 -6 7 -12
3 -7 -4 -2 4 11 19 22 24 51 27 51 4 0 -6 3 -7 7 -4 3 4 -3 16 -15 27 -12 12
-22 16 -22 10 0 -5 -5 -10 -12 -10 -6 0 -3 9 7 20 10 12 25 18 32 16 7 -3 13
-1 13 4 0 6 -6 10 -12 10 -9 0 -8 4 2 10 21 14 33 12 24 -2 -4 -7 7 0 24 16
17 16 29 34 25 39 -3 6 -2 7 4 4 12 -8 59 40 50 50 -4 3 0 15 10 25 9 10 18
30 19 44 2 14 12 34 23 43 11 10 18 20 16 23 -3 3 11 25 30 49 19 24 35 47 35
51 0 4 13 29 29 56 30 52 48 118 47 170 -1 18 1 32 4 32 3 0 6 9 6 19 0 13 -4
17 -11 11 -8 -6 -12 2 -13 26 -2 23 1 33 8 29 5 -3 10 -2 10 4 0 5 -5 11 -11
13 -6 2 -11 30 -11 66 -1 56 -2 61 -17 50 -9 -8 -8 -3 4 10 16 19 17 25 6 32
-8 4 -20 6 -27 3 -6 -2 -15 0 -19 6 -3 6 2 11 12 11 17 1 17 1 0 11 -9 5 -22
7 -27 4 -6 -3 -13 2 -17 12 -8 22 -35 43 -45 37 -5 -3 -7 3 -6 13 2 32 -3 78
-9 66 -2 -7 -9 -13 -14 -13 -4 0 -6 6 -3 14 3 8 -4 23 -16 34 -18 16 -21 30
-19 91 2 66 10 88 22 59 3 -7 6 6 6 30 1 40 13 55 25 30 4 -9 5 -8 5 2 -1 8
-1 33 0 55 1 32 4 37 12 23 12 -21 31 -24 23 -5 -2 7 4 22 15 34 14 15 17 23
8 32 -7 7 -8 11 0 11 5 0 10 10 9 23 -1 12 7 28 19 35 20 13 20 13 0 8 -15 -5
-14 -1 7 14 18 14 25 27 21 37 -4 11 -2 14 5 9 7 -4 12 -1 12 8 0 9 -6 16 -12
16 -7 0 -5 5 5 11 9 5 17 15 17 20 0 6 -5 7 -12 3 -7 -4 -8 -3 -4 4 4 6 13 9
21 5 10 -3 15 1 16 13 4 51 7 64 22 79 9 8 14 22 11 30 -4 8 -1 15 5 15 6 0
11 -6 11 -12 0 -9 4 -8 10 2 8 12 11 13 19 1 7 -11 9 -11 14 0 5 12 8 11 17
-1 10 -13 11 -13 7 1 -3 9 -1 22 4 30 8 12 10 12 19 -1 9 -13 10 -13 11 0 1 8
1 21 0 28 -3 17 10 15 24 -5 11 -15 12 -14 10 7 -2 14 -5 31 -6 39 -3 9 6 14
26 15 17 1 36 5 42 9 11 7 31 -10 31 -26 0 -5 4 -12 8 -15 4 -4 4 -1 0 6 -4 6
-2 12 3 12 6 0 11 -6 11 -12 0 -9 4 -8 10 2 9 13 11 13 20 0 5 -8 10 -10 10
-4 0 5 -6 16 -12 23 -10 11 -10 13 0 7 6 -4 12 -2 12 3 0 23 19 9 23 -16 l4
-28 2 28 c1 26 21 40 21 15 0 -9 3 -8 10 2 8 13 11 12 24 -5 13 -18 14 -17 10
14 -3 26 -1 32 11 28 9 -4 12 -1 8 8 -3 8 -9 13 -13 10 -5 -3 -11 1 -13 7 -4
10 -6 10 -6 1 -2 -24 -21 -13 -21 12 0 26 15 34 23 13 4 -9 6 -10 6 -1 1 16
-28 45 -39 38 -5 -3 -12 0 -16 6 -4 7 -3 9 3 6 6 -4 13 2 16 13 3 11 1 18 -3
15 -5 -3 -11 4 -15 15 -4 11 -10 18 -14 16 -4 -3 -8 4 -8 15 -1 11 2 17 6 15
4 -3 8 1 8 9 0 8 -4 12 -9 9 -4 -3 -8 2 -8 10 0 9 -10 34 -21 56 -21 40 -20
55 4 55 7 0 13 8 15 18 2 9 -2 17 -8 17 -6 0 -25 13 -43 30 -18 16 -42 30 -55
30 -13 0 -20 4 -17 10 3 6 -2 13 -12 17 -23 8 -53 39 -53 54 0 6 7 9 18 5 16
-6 16 -5 0 7 -18 14 -14 27 7 27 7 0 24 -11 39 -24 16 -13 38 -22 52 -20 23 2
28 -5 25 -33 -1 -7 2 -13 8 -13 5 0 12 6 15 13 3 6 4 3 3 -8 -1 -14 4 -20 15
-19 10 1 15 -2 13 -7 -3 -4 4 -18 16 -30 11 -11 22 -28 23 -38 2 -9 9 -16 16
-16 7 0 14 -7 16 -15 4 -28 31 -70 40 -62 5 4 6 3 2 -2 -4 -5 1 -23 11 -40 27
-45 37 -80 20 -71 -8 3 -4 -2 8 -13 13 -11 23 -26 23 -34 0 -8 5 -19 12 -26 9
-9 9 -12 -2 -12 -12 -1 -11 -4 3 -14 18 -14 36 -73 19 -62 -13 8 20 -85 40
-113 13 -18 15 -28 6 -38 -8 -10 -7 -13 2 -13 8 0 9 -4 3 -12 -12 -16 -2 -60
12 -56 6 2 9 9 8 17 -1 8 2 10 8 4 16 -16 -1 -45 -22 -40 -11 3 -22 0 -26 -5
-3 -6 -2 -8 4 -5 9 6 14 -23 14 -76 0 -11 5 -15 12 -10 7 4 5 -2 -3 -13 -8
-10 -16 -21 -17 -23 -2 -3 -9 3 -16 13 -12 16 -13 16 -13 -3 0 -11 3 -19 6
-19 28 2 49 -25 28 -38 -6 -4 -8 -3 -5 3 11 18 -21 23 -35 5 -11 -13 -11 -14
0 -8 11 7 11 4 1 -12 -7 -11 -20 -21 -28 -21 -40 -2 -49 -5 -44 -18 5 -11 -8
-18 -29 -14 -4 0 -5 -6 -2 -14 4 -9 0 -15 -7 -15 -10 0 -10 -3 -3 -8 6 -4 11
-15 11 -24 0 -14 -4 -15 -20 -6 -14 7 -18 7 -13 -1 4 -6 0 -19 -9 -28 -14 -14
-18 -14 -26 -2 -6 10 -9 7 -9 -13 0 -16 -6 -28 -12 -28 -10 0 -10 -2 -1 -8 7
-4 10 -16 8 -27 -2 -11 -4 -22 -4 -25 -1 -3 -6 2 -11 10 -8 12 -10 11 -10 -7
0 -12 -5 -25 -12 -29 -8 -5 -9 -1 -5 12 7 18 6 18 -8 -1 -14 -17 -17 -18 -25
-5 -8 12 -10 12 -10 1 0 -7 -6 -11 -15 -7 -11 4 -15 -2 -15 -27 0 -20 -3 -27
-8 -19 -6 9 -16 4 -37 -20 -31 -34 -41 -70 -18 -61 9 4 13 -5 13 -33 0 -29 -3
-35 -10 -24 -6 10 -10 11 -10 3 0 -7 -7 -13 -15 -13 -8 0 -15 -7 -15 -16 0
-10 -6 -14 -15 -10 -11 4 -15 -1 -14 -17 0 -12 3 -16 6 -9 10 26 19 10 20 -40
1 -29 7 -54 12 -56 6 -2 11 -12 11 -21 0 -10 9 -28 20 -41 11 -12 17 -27 13
-33 -4 -6 -1 -7 6 -2 8 4 21 -1 32 -14 11 -12 15 -21 8 -21 -9 0 -9 -3 0 -14
6 -8 11 -18 10 -22 -1 -5 -1 -31 0 -57 1 -35 4 -46 14 -41 10 6 10 4 0 -7 -16
-16 -17 -51 -1 -67 8 -8 8 -15 -1 -26 -8 -10 -9 -16 -1 -21 7 -4 6 -11 -4 -20
-14 -15 -10 -65 6 -76 8 -5 17 -46 20 -86 1 -7 3 -11 6 -9 6 7 42 -33 42 -48
0 -8 -7 -16 -15 -20 -8 -3 -15 -10 -15 -16 0 -12 -15 -32 -43 -58 -9 -9 -17
-24 -17 -33 0 -8 -3 -19 -7 -23 -12 -12 -16 -39 -19 -141 -2 -73 1 -106 12
-122 8 -12 14 -34 14 -47 0 -15 13 -38 30 -56 23 -24 26 -30 12 -30 -15 -1
-15 -2 -2 -13 16 -13 24 -91 9 -81 -5 3 -9 0 -9 -5 0 -6 5 -11 10 -11 6 0 10
-5 10 -11 0 -5 -3 -8 -7 -6 -5 3 -8 -8 -9 -24 -1 -16 2 -29 6 -29 4 0 8 -17 9
-38 1 -20 3 -43 3 -50 1 -7 7 -11 15 -8 10 4 13 -8 15 -49 2 -79 2 -79 18 -92
13 -12 13 -14 -1 -26 -9 -6 -19 -22 -23 -34 -5 -15 -13 -20 -27 -18 -12 2 -31
-2 -42 -9 -12 -7 -50 -23 -85 -36 -43 -15 -59 -26 -50 -31 17 -11 -13 -34 -64
-50 -21 -7 -38 -16 -38 -22 0 -5 -11 -7 -24 -5 -16 3 -27 0 -30 -9 -6 -15 -54
-37 -73 -34 -7 1 -13 -3 -13 -9 0 -5 -9 -10 -21 -10 -11 0 -18 -4 -15 -9 3 -4
-6 -7 -19 -5 -14 1 -23 -2 -19 -7 3 -5 -4 -9 -15 -9 -12 0 -21 -6 -21 -12 0
-9 -4 -8 -10 2 -9 13 -12 13 -21 -3 -5 -9 -15 -17 -20 -17 -6 0 -7 5 -4 11 4
6 -2 5 -14 -3 -12 -7 -21 -16 -21 -20 0 -5 -11 -8 -24 -8 -14 0 -27 -4 -30 -8
-2 -4 -19 -9 -38 -10 -18 -1 -39 -10 -45 -19 -7 -9 -13 -12 -13 -5 0 17 -46
15 -63 -3 -8 -7 -26 -17 -41 -21 -24 -6 -26 -10 -26 -60 0 -31 -4 -54 -10 -54
-7 0 -7 -6 0 -19 16 -30 -9 -39 -32 -11 -14 17 -18 19 -18 6 0 -9 5 -16 10
-16 6 0 10 -5 10 -11 0 -5 -5 -7 -11 -4 -6 4 -10 1 -8 -6 5 -42 -2 -79 -16
-79 -8 0 -15 -4 -15 -10 0 -5 -5 -10 -11 -10 -6 0 -7 5 -2 12 4 7 8 19 10 27
1 8 7 17 12 21 8 4 6 16 -4 38 -21 40 -32 47 -52 30 -9 -7 -19 -12 -22 -12 -8
2 -15 0 -86 -21 -58 -17 -104 -36 -135 -55 -8 -5 -28 -12 -45 -15 -29 -6 -29
-7 -11 -21 22 -16 23 -16 -59 -19 -47 -1 -61 -5 -63 -19 -2 -9 -8 -14 -13 -10
-5 3 -27 -13 -48 -35 -37 -39 -39 -40 -45 -18 l-7 22 -9 -22 c-11 -27 -22 -31
-13 -5 7 19 4 17 -17 -13 -8 -11 -10 -17 -6 -13 5 4 15 3 23 -3 10 -9 13 -8
13 2 0 11 2 11 9 0 6 -9 6 -22 1 -31 -6 -11 -5 -21 2 -28 9 -9 9 -12 -1 -12
-7 0 -9 -4 -6 -10 3 -5 -6 -12 -20 -16 -14 -3 -25 -10 -25 -16 0 -5 6 -6 13
-2 6 4 2 -4 -11 -18 -12 -13 -19 -27 -16 -30 3 -4 -6 -5 -20 -4 -15 2 -23 -1
-19 -7 3 -5 -2 -16 -12 -24 -11 -7 -15 -13 -10 -13 5 0 17 7 27 17 22 20 35
11 14 -10 -8 -8 -13 -17 -11 -19 10 -10 -31 -5 -44 6 -11 8 -13 8 -8 -1 4 -6
3 -14 -3 -18 -5 -3 -10 -2 -10 2 0 16 -38 12 -55 -7 -9 -10 -17 -32 -17 -49
-1 -35 -6 -37 -33 -17 -23 17 -46 10 -38 -11 5 -12 3 -14 -8 -8 -12 7 -12 6 1
-9 13 -16 12 -20 -3 -31 -10 -7 -14 -16 -8 -19 5 -3 12 0 14 6 4 10 6 10 6 0
1 -7 -6 -15 -14 -18 -8 -4 -12 -11 -8 -18 14 -21 11 -34 -8 -39 -10 -3 -17 -1
-13 4 8 14 -6 11 -22 -5 -8 -9 -10 -16 -3 -18 5 -2 7 -12 3 -22 -5 -12 -14
-16 -30 -13 -22 4 -24 1 -24 -31 0 -28 -3 -32 -14 -23 -10 9 -15 8 -19 -3 -3
-8 -3 -17 0 -20 5 -5 150 67 167 85 13 12 53 12 58 0 3 -10 22 -14 51 -12 12
1 17 10 17 30 0 35 15 49 25 23 3 -9 6 -19 6 -22 1 -12 22 -29 31 -24 5 3 12
-3 15 -15 3 -11 10 -18 17 -15 6 4 -3 -8 -21 -25 -33 -32 -50 -41 -37 -18 6 9
5 9 -7 0 -8 -6 -30 -15 -49 -20 -35 -9 -53 -39 -31 -52 6 -4 12 -16 14 -28 1
-12 8 -28 15 -36 7 -8 13 -31 14 -51 1 -22 8 -41 17 -46 10 -6 11 -10 4 -10
-19 0 -28 4 -26 12 2 5 -4 8 -12 8 -9 0 -21 12 -28 28 -6 15 -15 30 -20 33 -4
3 -7 10 -5 15 1 5 -4 20 -12 34 -7 14 -13 27 -12 30 1 3 -8 15 -18 28 -15 17
-24 20 -38 13 -9 -5 -25 -12 -36 -15 -15 -5 -16 -9 -5 -22 20 -24 22 -54 3
-54 -11 0 -14 -5 -10 -16 4 -9 -1 -28 -9 -41 -13 -19 -14 -27 -4 -39 8 -10 8
-14 0 -14 -7 0 -11 -14 -9 -35 l2 -35 76 0 75 0 -1 39 c-1 22 -5 44 -8 50 -4
5 -1 13 6 17 7 4 10 4 6 0 -8 -9 13 -36 23 -30 3 2 14 -14 24 -36 l18 -40
2204 0 2203 0 0 1389 0 1389 -31 73 c-17 41 -46 124 -64 184 -50 166 -151 456
-195 564 -69 168 -285 588 -356 692 -137 199 -220 304 -274 347 -30 23 -104
82 -163 130 -60 48 -130 100 -155 116 -26 16 -69 49 -97 73 l-50 43 -518 0
-519 -1 64 -59 c58 -55 62 -61 46 -74 -21 -15 -24 -30 -5 -23 8 3 14 -4 15
-16 0 -12 -2 -17 -6 -11 -10 15 -40 25 -47 14 -3 -5 1 -24 8 -42 8 -18 12 -39
10 -45 -3 -7 1 -13 8 -13 7 0 9 -3 6 -6 -3 -4 2 -18 13 -32 11 -13 17 -29 13
-35 -10 -17 -133 119 -133 147 0 20 -4 24 -17 19 -10 -3 -15 -3 -11 2 10 11
-10 45 -26 45 -8 0 -13 8 -12 18 2 9 -3 27 -11 39 -16 23 -9 48 9 37 7 -4 8
-2 4 4 -5 9 -13 9 -27 2 -13 -7 -19 -7 -19 0 0 5 -7 10 -15 10 -8 0 -15 5 -15
10 0 6 -42 10 -107 10 l-108 -1 39 -19 c22 -11 42 -24 45 -28 4 -4 18 -13 34
-19 15 -7 27 -17 27 -23 0 -5 7 -10 15 -10 8 0 15 -8 15 -17 0 -11 -3 -14 -8
-7 -7 11 -42 28 -53 26 -4 -1 -14 7 -24 18 -9 10 -23 16 -31 13 -8 -3 -14 0
-14 6 0 6 -10 11 -22 11 -12 0 -30 7 -40 16 -14 13 -21 14 -32 5 -12 -10 -19
-8 -35 8 -19 19 -33 20 -515 21 -366 0 -496 -2 -496 -11z m1559 -25 c4 3 13 0
21 -5 11 -7 9 -8 -9 -6 -14 2 -26 9 -27 16 -1 6 0 7 3 1 2 -5 8 -8 12 -6z
m-404 -207 c16 -5 15 -5 -4 -4 -14 1 -26 9 -28 17 -3 10 -2 11 4 4 4 -7 17
-14 28 -17z m45 -18 c0 -6 -6 -17 -14 -24 -12 -12 -15 -12 -19 -1 -5 14 10 36
25 36 4 0 8 -5 8 -11z m-45 -224 c15 -19 25 -42 22 -52 -4 -14 -5 -14 -6 4 0
12 -7 26 -13 30 -22 14 -52 53 -40 53 6 0 23 -16 37 -35z m52 -70 c0 -8 -4
-12 -9 -9 -5 3 -6 10 -3 15 9 13 12 11 12 -6z m-104 -79 c4 -9 -3 -12 -21 -10
-15 1 -30 -2 -34 -9 -4 -6 -10 -8 -14 -4 -10 9 38 46 52 40 7 -2 15 -10 17
-17z m77 -16 c0 -5 -4 -10 -10 -10 -5 0 -10 5 -10 10 0 6 5 10 10 10 6 0 10
-4 10 -10z m-142 -20 c27 -25 27 -28 5 -26 -11 0 -18 -6 -17 -16 1 -10 -4 -14
-12 -11 -18 7 -18 13 4 29 16 13 16 15 -2 29 -11 8 -15 15 -10 15 6 0 20 -9
32 -20z m-18 -10 c0 -5 -4 -10 -10 -10 -5 0 -10 5 -10 10 0 6 5 10 10 10 6 0
10 -4 10 -10z m-30 -60 c0 -5 -4 -10 -10 -10 -5 0 -10 5 -10 10 0 6 5 10 10
10 6 0 10 -4 10 -10z m537 -289 c9 -14 8 -18 -3 -18 -7 0 -11 4 -8 9 3 4 1 8
-4 8 -6 0 -12 7 -15 14 -8 20 15 10 30 -13z m-1440 -87 c3 -83 7 -106 20 -111
7 -3 13 -9 13 -14 0 -4 -7 -6 -16 -2 -14 5 -15 3 -4 -18 l11 -24 -20 25 c-12
15 -21 40 -21 61 0 19 -6 41 -12 48 -7 8 -8 11 -2 8 8 -5 11 8 9 39 -2 30 1
44 9 41 6 -2 12 -26 13 -53z m1342 13 c0 -8 -3 -7 -6 2 -4 11 -7 11 -14 0 -4
-7 -11 -10 -16 -6 -9 9 17 28 29 21 4 -3 8 -11 7 -17z m-719 -107 c0 -5 -5
-10 -11 -10 -5 0 -7 5 -4 10 3 6 8 10 11 10 2 0 4 -4 4 -10z m-145 -119 c-3
-6 3 -14 12 -20 17 -10 17 -10 1 -11 -12 0 -15 -5 -11 -16 5 -13 7 -13 14 -2
10 15 11 11 11 -32 0 -86 -4 -115 -11 -95 -5 11 -6 25 -4 31 2 7 0 15 -5 18
-5 3 -8 -8 -6 -24 2 -17 -1 -30 -6 -30 -6 0 -10 11 -10 24 0 14 -4 28 -10 31
-6 3 -7 -1 -4 -9 3 -9 1 -16 -5 -16 -6 0 -11 5 -11 11 0 5 -6 7 -12 3 -10 -6
-10 -4 0 7 14 15 17 33 4 25 -5 -3 -9 0 -9 7 -2 35 -15 81 -28 94 -8 8 -15 17
-15 20 0 6 40 -25 53 -42 5 -6 7 -4 6 5 -3 32 1 42 16 36 10 -3 15 1 15 12 1
16 1 16 11 -1 5 -9 7 -21 4 -26z m25 29 c0 -5 -4 -10 -10 -10 -5 0 -10 5 -10
10 0 6 5 10 10 10 6 0 10 -4 10 -10z m0 -30 c0 -5 -5 -10 -11 -10 -5 0 -7 5
-4 10 3 6 8 10 11 10 2 0 4 -4 4 -10z m60 -30 c0 -5 -5 -10 -11 -10 -5 0 -7 5
-4 10 3 6 8 10 11 10 2 0 4 -4 4 -10z m-33 -52 c-3 -7 -5 -2 -5 12 0 14 2 19
5 13 2 -7 2 -19 0 -25z m0 -65 c-3 -10 -5 -2 -5 17 0 19 2 27 5 18 2 -10 2
-26 0 -35z m33 37 c0 -5 -2 -10 -4 -10 -3 0 -8 5 -11 10 -3 6 -1 10 4 10 6 0
11 -4 11 -10z m450 0 c0 -5 -2 -10 -4 -10 -3 0 -8 5 -11 10 -3 6 -1 10 4 10 6
0 11 -4 11 -10z m30 6 c0 -3 -4 -8 -10 -11 -5 -3 -10 -1 -10 4 0 6 5 11 10 11
6 0 10 -2 10 -4z m-1015 -36 c3 -5 1 -10 -4 -10 -6 0 -11 5 -11 10 0 6 2 10 4
10 3 0 8 -4 11 -10z m425 -24 c0 -3 -4 -8 -10 -11 -5 -3 -10 -1 -10 4 0 6 5
11 10 11 6 0 10 -2 10 -4z m527 -118 c-3 -7 -5 -2 -5 12 0 14 2 19 5 13 2 -7
2 -19 0 -25z m-1055 -154 c-3 -24 -7 -32 -13 -23 -4 7 -6 16 -5 19 2 3 6 13 9
23 10 27 13 20 9 -19z m8 -105 c0 -11 -4 -17 -10 -14 -5 3 -10 13 -10 21 0 8
5 14 10 14 6 0 10 -9 10 -21z m2109 -97 c0 -9 5 -48 11 -86 6 -37 9 -78 7 -90
-3 -19 -5 -18 -16 9 -7 17 -15 55 -17 85 -2 30 -6 61 -9 68 -2 6 1 12 7 12 7
0 6 5 -2 15 -11 13 -10 14 3 9 9 -3 16 -13 16 -22z m18 -234 c2 -17 0 -19 -7
-8 -5 8 -6 18 -4 22 8 12 10 10 11 -14z m-1752 -638 c3 -5 1 -10 -4 -10 -6 0
-11 5 -11 10 0 6 2 10 4 10 3 0 8 -4 11 -10z m906 -30 c5 0 9 6 9 13 0 6 10
-4 21 -23 12 -19 33 -45 47 -58 14 -13 28 -35 29 -50 2 -15 10 -45 18 -67 8
-22 13 -56 10 -75 -3 -24 1 -39 14 -51 21 -19 17 -77 -5 -86 -8 -3 -14 -11
-14 -19 0 -20 -27 -17 -47 5 -48 51 -60 70 -49 75 7 3 5 10 -6 19 -10 8 -18
24 -18 36 0 12 -4 20 -9 16 -5 -3 -12 4 -16 15 -4 11 -11 18 -16 15 -5 -4 -9
6 -9 20 0 14 4 24 8 21 4 -2 9 4 9 15 1 11 -2 17 -8 14 -5 -4 -9 -1 -9 4 0 6
6 11 12 11 7 0 3 7 -9 15 -16 11 -21 23 -18 45 3 22 1 29 -8 24 -9 -5 -9 -3 1
7 6 7 12 17 12 22 0 4 -6 5 -12 1 -7 -4 -5 2 5 13 9 11 14 22 11 26 -3 3 -3
11 1 16 4 8 11 6 21 -4 9 -8 20 -15 25 -15z m1039 -129 c0 -10 7 -24 15 -31 9
-7 14 -27 13 -51 -1 -21 4 -44 11 -52 6 -8 11 -28 11 -43 -2 -73 9 -206 18
-217 23 -29 36 -152 18 -176 -8 -11 -8 -13 2 -7 6 4 12 5 12 2 0 -2 3 -12 7
-22 4 -12 3 -15 -6 -10 -9 6 -9 2 1 -14 10 -18 10 -24 1 -27 -7 -3 -13 -9 -13
-14 0 -6 4 -8 9 -5 14 9 7 -22 -9 -37 -10 -10 -11 -9 -6 1 4 7 3 19 -3 26 -7
8 -11 18 -10 22 2 10 -8 40 -22 68 -7 13 -7 16 0 11 7 -4 10 2 7 17 -2 13 -9
22 -15 20 -13 -2 -15 14 -3 22 4 2 4 42 -1 88 -4 46 -8 90 -9 98 0 8 -5 20
-10 26 -4 6 -10 35 -12 63 -3 39 0 51 10 51 8 0 14 10 14 25 0 14 -5 25 -11
25 -5 0 -7 -6 -3 -12 4 -8 3 -10 -2 -5 -5 5 -9 12 -9 15 -1 4 -6 16 -12 28
-15 26 -14 86 1 77 6 -4 3 3 -7 14 -10 11 -15 27 -11 36 8 21 24 12 24 -12z
m-2374 -335 c2 -14 0 -26 -5 -26 -5 0 -9 14 -9 30 1 35 7 34 14 -4z m1544 -80
c8 0 22 4 30 8 9 3 27 4 40 2 14 -2 27 -5 30 -5 9 -1 7 -41 -2 -41 -4 0 -5 -8
-2 -17 5 -15 3 -15 -10 1 -15 18 -16 18 -16 2 0 -11 -4 -15 -12 -10 -9 5 -8 2
1 -10 11 -13 12 -19 2 -29 -10 -9 -11 -8 -6 6 4 10 2 17 -4 17 -6 0 -11 -12
-11 -27 0 -21 -3 -24 -10 -13 -7 12 -10 12 -16 -4 -7 -18 -8 -18 -21 0 -13 17
-13 17 -13 -1 0 -10 -3 -15 -7 -12 -3 4 -12 2 -20 -4 -7 -6 -13 -8 -13 -4 0 4
-7 2 -15 -5 -11 -9 -15 -9 -15 -1 0 7 -5 9 -10 6 -6 -4 -8 -10 -6 -14 3 -4
-15 -9 -39 -9 -24 -1 -47 3 -50 8 -4 7 -12 7 -18 2 -11 -7 -33 -9 -39 -2 -2 1
-15 3 -29 4 -45 3 -118 62 -119 96 0 28 35 38 145 39 60 1 113 5 118 8 20 12
72 19 97 14 14 -4 32 -6 40 -5z m-1394 -210 c-6 -36 -11 -46 -26 -46 -16 0
-19 5 -14 33 15 84 52 97 40 13z m904 -62 c0 -11 24 -26 45 -28 6 -1 14 -11
20 -24 5 -12 18 -25 28 -28 9 -3 15 -9 12 -14 -3 -5 6 -21 20 -36 15 -16 25
-21 25 -13 0 12 2 12 9 0 5 -7 14 -10 20 -7 6 4 11 0 11 -11 0 -15 2 -16 11
-3 8 11 12 12 16 2 2 -6 9 -10 14 -7 4 3 11 -6 15 -20 5 -19 12 -25 35 -25 16
0 29 -5 29 -11 0 -5 5 -7 10 -4 6 3 10 1 10 -4 0 -6 11 -11 24 -11 14 0 28 -4
31 -10 3 -5 1 -10 -5 -10 -7 0 -5 -7 4 -16 9 -8 13 -20 10 -26 -4 -6 -2 -8 3
-5 6 4 13 0 17 -8 7 -19 -11 -68 -23 -61 -4 3 -7 -6 -5 -19 1 -14 -3 -28 -8
-32 -7 -3 -8 -1 -4 5 4 7 2 12 -3 12 -10 0 -16 -38 -12 -64 1 -5 -5 -6 -14 -3
-12 5 -15 -3 -15 -51 0 -36 -4 -52 -9 -43 -5 8 -11 9 -15 3 -3 -5 4 -18 15
-28 l20 -18 -21 -8 c-12 -4 -18 -12 -15 -18 3 -5 -2 -10 -12 -10 -12 0 -14 -3
-6 -8 12 -8 12 -36 0 -48 -11 -11 -8 -26 4 -19 6 4 5 -2 -3 -14 -7 -12 -16
-21 -21 -21 -4 0 -5 5 -2 10 3 6 1 10 -4 10 -6 0 -11 -8 -11 -17 -1 -16 -2
-16 -15 1 -8 11 -15 15 -15 9 0 -17 -67 -10 -89 9 -14 12 -21 13 -25 5 -3 -8
-8 -6 -16 6 -6 9 -16 17 -23 17 -7 0 -6 -4 3 -10 12 -7 10 -9 -7 -7 -12 0 -19
5 -17 9 5 8 -11 12 -30 9 -5 -1 -6 5 -3 14 8 18 -4 20 -22 3 -10 -11 -12 -10
-9 2 2 8 -3 14 -10 12 -7 -1 -15 6 -19 15 -4 10 -24 36 -45 57 -21 21 -35 31
-31 21 5 -14 3 -17 -10 -12 -11 4 -14 2 -10 -9 4 -12 -7 -19 -29 -15 -4 0 -5
-6 -2 -14 4 -8 1 -15 -6 -15 -6 0 -8 -5 -4 -12 10 -16 -19 7 -58 45 -15 16
-26 33 -23 38 3 5 -9 24 -27 42 -33 34 -41 48 -42 78 0 10 -6 15 -14 11 -10
-3 -13 3 -10 24 3 28 5 29 52 26 39 -2 52 1 67 19 13 15 16 26 9 34 -6 7 -2
23 12 46 12 18 25 48 29 64 16 61 96 281 110 303 l14 23 32 -38 c18 -21 33
-43 33 -49z m437 -356 c2 -17 0 -19 -7 -8 -5 8 -6 18 -4 22 8 12 10 10 11 -14z
m-1764 -88 c3 -11 1 -18 -4 -14 -5 3 -9 12 -9 20 0 20 7 17 13 -6z m-226 -227
c2 -6 -4 -10 -14 -9 -13 1 -18 -6 -17 -26 0 -15 -3 -25 -7 -22 -11 6 -8 46 4
62 11 14 29 12 34 -5z"/>
<path d="M1655 3650 c2 -27 10 -33 12 -10 1 11 -2 22 -6 24 -4 3 -7 -4 -6 -14z"/>
<path d="M2000 760 c-8 -5 -12 -12 -9 -15 4 -3 12 1 19 10 14 17 11 19 -10 5z"/>
<path d="M1915 691 c17 -16 32 -27 34 -25 6 5 -43 54 -54 54 -5 0 4 -13 20
-29z"/>
<path d="M2555 4908 c17 -20 36 -37 43 -37 6 -1 12 -6 12 -12 0 -5 4 -7 10 -4
5 3 0 16 -13 29 -12 13 -24 22 -26 20 -3 -2 -16 6 -30 18 -22 20 -21 18 4 -14z"/>
<path d="M2670 4880 c0 -5 5 -10 10 -10 6 0 10 5 10 10 0 6 -4 10 -10 10 -5 0
-10 -4 -10 -10z"/>
<path d="M2550 4850 c0 -5 5 -10 11 -10 5 0 7 5 4 10 -3 6 -8 10 -11 10 -2 0
-4 -4 -4 -10z"/>
<path d="M2585 4850 c3 -5 8 -10 11 -10 2 0 4 5 4 10 0 6 -5 10 -11 10 -5 0
-7 -4 -4 -10z"/>
<path d="M860 4623 c-23 -27 -47 -59 -52 -73 -13 -33 -20 -109 -8 -90 5 8 12
12 15 8 9 -9 17 -60 8 -55 -5 3 -10 -25 -12 -61 -1 -37 -8 -73 -14 -81 -9 -12
-9 -13 1 -7 6 4 12 2 12 -3 0 -6 -7 -11 -16 -11 -11 0 -14 -5 -10 -16 3 -9 6
-20 6 -25 0 -6 5 -7 11 -4 6 4 8 13 5 20 -3 8 2 19 10 26 9 7 11 15 5 18 -5 4
-3 20 6 41 9 19 17 40 18 45 9 62 18 84 36 82 11 -1 17 -7 15 -14 -3 -7 0 -15
6 -19 7 -4 9 14 6 59 -3 36 -1 71 3 78 10 16 0 41 -14 32 -6 -3 -7 -1 -3 6 4
6 11 9 14 7 4 -2 12 7 19 20 7 14 7 22 1 18 -15 -10 -29 18 -16 33 7 9 7 13 0
13 -6 0 -29 -21 -52 -47z m38 -148 c-3 -3 -9 2 -12 12 -6 14 -5 15 5 6 7 -7
10 -15 7 -18z"/>
<path d="M745 4470 c-10 -11 -14 -20 -10 -20 5 0 -1 -10 -13 -22 -43 -47 -69
-123 -68 -198 1 -50 -2 -69 -11 -66 -15 6 -22 -14 -13 -38 4 -14 9 -16 14 -8
4 7 4 12 1 12 -4 0 1 7 9 16 9 8 14 20 10 25 -3 6 -1 15 4 22 6 7 11 15 11 20
1 4 1 8 2 10 0 1 2 13 5 26 2 14 9 30 15 37 7 8 7 14 -1 19 -8 5 -8 11 1 21 6
7 15 11 20 8 15 -9 23 27 11 47 -14 22 -15 32 -3 25 5 -3 15 14 23 39 9 25 14
45 13 45 -1 0 -10 -9 -20 -20z"/>
<path d="M924 4334 c-4 -10 -15 -30 -24 -44 -10 -14 -21 -36 -25 -50 -4 -14
-12 -28 -18 -32 -6 -3 -11 -20 -11 -37 -1 -26 1 -29 10 -16 9 12 11 4 10 -39
0 -30 -4 -52 -7 -50 -8 5 -19 -33 -19 -68 0 -58 37 -13 46 55 3 23 11 51 18
62 6 11 11 30 10 43 -1 16 3 21 13 18 9 -4 16 5 20 27 4 17 6 35 5 40 -1 4 2
7 8 7 5 0 9 11 8 25 -2 23 -10 30 -32 26 -5 -1 -3 5 4 14 10 12 10 19 2 27 -8
8 -13 6 -18 -8z m11 -142 c-3 -3 -11 0 -18 7 -9 10 -8 11 6 5 10 -3 15 -9 12
-12z"/>
<path d="M2455 4330 c-3 -5 -4 -14 0 -19 3 -5 -2 -16 -10 -25 -14 -13 -13 -15
2 -13 13 1 18 10 18 34 0 36 -1 38 -10 23z"/>
<path d="M2326 4283 c-6 -14 -5 -15 5 -6 7 7 10 15 7 18 -3 3 -9 -2 -12 -12z"/>
<path d="M925 4151 c-3 -6 -2 -11 3 -11 5 0 8 -11 7 -24 -2 -13 1 -29 5 -37 5
-8 7 4 5 30 -4 46 -9 58 -20 42z"/>
<path d="M1045 4071 c-3 -5 -2 -12 3 -15 5 -3 9 1 9 9 0 17 -3 19 -12 6z"/>
<path d="M2012 4035 c-11 -12 -10 -15 3 -15 8 0 15 7 15 15 0 18 -2 18 -18 0z"/>
<path d="M960 3950 c0 -5 5 -10 11 -10 5 0 7 5 4 10 -3 6 -8 10 -11 10 -2 0
-4 -4 -4 -10z"/>
<path d="M829 3936 c0 -1 -2 -10 -4 -22 -3 -13 1 -21 10 -21 8 0 13 2 10 5 -2
3 0 12 5 22 6 12 5 17 -6 17 -7 0 -14 -1 -15 -1z"/>
<path d="M1056 3773 c-4 -21 -8 -68 -10 -105 -2 -68 -8 -83 -29 -83 -7 0 -12
-4 -13 -10 0 -5 -6 -22 -12 -37 -11 -26 -12 -34 -13 -98 -1 -19 -6 -38 -12
-42 -7 -4 -6 -12 4 -24 9 -11 9 -15 2 -10 -7 4 -13 2 -13 -3 0 -16 -2 -24 -10
-47 -4 -11 -4 -27 1 -36 6 -11 5 -19 -1 -23 -5 -3 -10 -12 -10 -18 0 -7 4 -6
11 3 11 17 2 -54 -11 -80 -13 -25 -43 -173 -42 -205 1 -21 -1 -26 -7 -16 -7
11 -11 6 -15 -20 -3 -19 -10 -62 -16 -95 -8 -44 -7 -70 1 -90 11 -28 11 -28
19 -8 5 12 13 25 19 29 15 9 14 28 -1 20 -7 -4 -5 0 4 8 10 8 14 18 10 22 -4
5 1 5 10 2 12 -4 15 -2 12 8 -3 7 1 26 10 43 8 16 17 56 19 88 3 32 11 79 18
104 7 25 13 52 14 60 1 8 7 33 13 56 13 43 22 157 25 312 1 64 6 95 15 101 16
10 36 211 23 224 -5 5 -12 -8 -15 -30z"/>
<path d="M1040 3560 c0 -5 5 -10 11 -10 5 0 7 5 4 10 -3 6 -8 10 -11 10 -2 0
-4 -4 -4 -10z"/>
<path d="M297 3313 c-4 -3 -7 -18 -6 -32 1 -26 1 -25 10 3 9 31 7 41 -4 29z"/>
<path d="M284 3176 c2 -51 16 -57 16 -8 0 23 -4 42 -9 42 -5 0 -8 -15 -7 -34z"/>
<path d="M489 2730 c-1 -5 -1 -17 -1 -25 0 -28 2 -35 12 -35 6 0 6 9 1 23 -4
12 -6 28 -4 35 3 6 2 12 -1 12 -3 0 -7 -4 -7 -10z"/>
<path d="M825 2670 c-3 -5 -4 -14 -1 -19 3 -5 -1 -14 -9 -21 -19 -16 -19 -30
1 -30 8 0 12 5 9 10 -4 6 -2 16 3 23 5 7 9 20 9 30 0 19 -3 21 -12 7z"/>
<path d="M486 2643 c-6 -14 -5 -15 5 -6 7 7 10 15 7 18 -3 3 -9 -2 -12 -12z"/>
<path d="M66 2613 c-6 -14 -5 -15 5 -6 7 7 10 15 7 18 -3 3 -9 -2 -12 -12z"/>
<path d="M339 2608 c-5 -17 -4 -50 3 -54 5 -3 7 8 6 25 -2 26 -6 38 -9 29z"/>
<path d="M780 2550 c0 -5 5 -10 11 -10 5 0 7 5 4 10 -3 6 -8 10 -11 10 -2 0
-4 -4 -4 -10z"/>
<path d="M812 2548 c-7 -7 -12 -19 -12 -27 0 -14 -2 -14 -11 -1 -9 13 -10 13
-7 0 2 -18 -19 -86 -36 -115 -19 -31 -59 -162 -54 -177 12 -35 106 170 111
241 1 16 5 27 8 25 6 -3 20 57 15 63 -1 2 -8 -3 -14 -9z"/>
<path d="M100 2380 c0 -19 3 -21 12 -12 9 9 9 15 0 24 -9 9 -12 7 -12 -12z"/>
<path d="M1610 2396 c0 -2 7 -7 16 -10 8 -3 12 -2 9 4 -6 10 -25 14 -25 6z"/>
<path d="M99 2340 c-1 -8 0 -19 1 -25 2 -5 2 -18 2 -29 -1 -24 7 -15 13 14 2
13 0 30 -5 39 -8 14 -10 14 -11 1z"/>
<path d="M2078 2329 c-10 -5 -18 -7 -18 -4 0 21 -32 -31 -37 -60 -3 -19 -10
-35 -15 -35 -5 0 -2 -7 6 -16 9 -8 16 -20 16 -25 0 -6 5 -7 10 -4 6 3 10 1 10
-4 0 -6 -4 -11 -10 -11 -5 0 -10 -5 -10 -11 0 -5 5 -7 10 -4 6 4 10 -5 10 -21
0 -21 3 -24 14 -15 8 6 19 10 26 9 7 -2 15 4 17 12 4 13 3 13 -6 0 -8 -11 -11
-11 -11 -2 0 7 7 15 15 18 8 4 15 14 15 23 0 9 8 24 18 32 46 42 63 69 52 89
-20 37 -75 51 -112 29z"/>
<path d="M499 1283 c-1 -10 0 -26 1 -36 1 -10 -4 -25 -11 -33 -10 -12 -9 -13
5 -8 9 3 17 11 17 18 7 50 6 76 -2 76 -5 0 -10 -8 -10 -17z"/>
<path d="M489 1188 c-6 -18 -4 -80 4 -85 6 -3 7 -1 3 5 -4 7 -1 12 6 12 10 0
10 2 1 8 -14 9 -12 44 2 54 6 5 5 8 -2 8 -7 0 -13 -1 -14 -2z"/>
<path d="M655 340 c-3 -6 1 -7 9 -4 18 7 21 14 7 14 -6 0 -13 -4 -16 -10z"/>
<path d="M227 246 c-3 -7 -27 -26 -54 -41 -26 -15 -56 -37 -66 -47 -19 -19
-17 -48 2 -48 11 0 8 -56 -2 -67 -4 -3 -2 -14 4 -24 8 -15 21 -19 64 -19 29 0
57 5 61 11 3 6 7 30 8 54 1 23 8 51 16 61 13 16 13 17 -2 12 -16 -7 -20 14 -5
28 4 4 7 20 7 36 0 15 5 28 11 28 8 0 8 5 -1 15 -15 19 -36 19 -43 1z"/>
<path d="M75 101 c3 -14 -1 -18 -16 -14 -10 3 -19 10 -19 17 -1 6 -7 -4 -15
-23 -8 -18 -12 -38 -8 -44 3 -6 1 -7 -5 -3 -8 5 -12 0 -12 -13 0 -18 6 -21 50
-21 44 0 50 2 42 16 -10 18 -4 57 7 49 10 -5 7 27 -3 43 -11 19 -25 14 -21 -7z"/>
</g>
</svg>
